<!--?xml version="1.0" encoding="utf-8"?-->
<!-- Generator: Adobe Illustrator 18.1.1, SVG Export Plug-In . SVG Version: 6.00 Build 0)  -->

<svg version="1.1" id="_x32_" xmlns="http://www.w3.org/2000/svg" xmlns:xlink="http://www.w3.org/1999/xlink" x="0px" y="0px" viewBox="0 0 512 512" style="width: 128px; height: 128px; opacity: 1;" xml:space="preserve">
<style type="text/css">
	.st0{fill:#4B4B4B;}
</style>
<g>
	<path class="st0" d="M275.068,202.112L393.846,85.437c9.736-9.571,9.873-25.218,0.309-34.954
		c-9.564-9.737-25.218-9.88-34.954-0.316L240.43,166.856c-9.738,9.565-9.874,25.21-0.316,34.947
		C249.686,211.539,265.324,211.683,275.068,202.112z" style="fill: rgb(35, 37, 38);"></path>
	<path class="st0" d="M433.511,283.904c12.25,0,23.976,2.183,34.94,6.003l10.886-66.648c15.488-0.33,27.96-12.968,27.96-28.543
		v-9.528c0-15.789-12.795-28.585-28.578-28.585H347.246l-59.482,58.442c-8.056,7.913-18.72,12.271-30.015,12.271
		c-11.582,0-22.431-4.552-30.552-12.816c-15.689-15.984-16.264-41.216-1.925-57.896H28.579C12.796,156.602,0,169.398,0,185.187
		v9.528c0,15.554,12.437,28.191,27.918,28.543l30.811,188.687c3.727,22.848,23.48,39.628,46.63,39.628h241.069
		c-12.2-17.326-19.438-38.393-19.438-61.148C326.989,331.689,374.775,283.904,433.511,283.904z M152.161,400.054
		c-2.534,2.808-6.147,4.416-9.923,4.416h-7.461c-6.656,0-12.293-4.897-13.226-11.482l-16.408-116.007
		c-0.538-3.834,0.604-7.712,3.138-10.634c2.534-2.915,6.218-4.595,10.088-4.595h11.718c6.843,0,12.573,5.163,13.284,11.963
		l12.149,116.014C155.908,393.491,154.688,397.24,152.161,400.054z M228.618,400.442c-2.506,2.57-5.953,4.029-9.55,4.029h-7.64
		c-7.065,0-12.91-5.507-13.327-12.559l-6.893-116.014c-0.216-3.67,1.092-7.274,3.612-9.946c2.528-2.678,6.039-4.2,9.722-4.2h11.905
		c7.259,0,13.183,5.802,13.349,13.046l2.628,116.015C232.502,394.403,231.131,397.879,228.618,400.442z M309.153,391.912
		c-0.424,7.052-6.268,12.559-13.334,12.559h-7.64c-3.598,0-7.036-1.458-9.542-4.029c-2.52-2.563-3.892-6.039-3.813-9.628
		l2.636-116.015c0.158-7.244,6.089-13.046,13.348-13.046h11.906c3.669,0,7.195,1.523,9.715,4.2c2.52,2.671,3.827,6.276,3.612,9.946
		L309.153,391.912z" style="fill: rgb(35, 37, 38);"></path>
	<path class="st0" d="M433.511,311.929c-43.356,0-78.489,35.141-78.489,78.497c0,43.348,35.134,78.489,78.489,78.489
		c43.348,0,78.489-35.141,78.489-78.489C512,347.07,476.859,311.929,433.511,311.929z M429.06,427.089l-37.526-30.022l14.239-17.8
		l19.473,15.582l32.807-42.178l18.002,13.994L429.06,427.089z" style="fill: rgb(35, 37, 38);"></path>
</g>
</svg>
